HIERARCHY
ROOT Hips
{
	OFFSET 0.000000 0.000000 0.000000
	CHANNELS 6 Xposition Yposition Zposition Zrotation Yrotation Xrotation 
	JOINT LHipJoint
	{
		OFFSET 0.000000 0.000000 0.000000
		CHANNELS 3 Zrotation Yrotation Xrotation
		JOINT LeftUpLeg
		{
			OFFSET 1.363060 -1.794630 0.839290
			CHANNELS 3 Zrotation Yrotation Xrotation
			JOINT LeftLeg
			{
				OFFSET 2.448110 -6.726130 0.000000
				CHANNELS 3 Zrotation Yrotation Xrotation
				JOINT LeftFoot
				{
					OFFSET 2.562200 -7.039590 0.000000
					CHANNELS 3 Zrotation Yrotation Xrotation
					JOINT LeftToeBase
					{
						OFFSET 0.157640 -0.433110 2.322550
						CHANNELS 3 Zrotation Yrotation Xrotation
						End Site
						{
							OFFSET 0.000000 0.000000 0.000000
						}
					}
				}
			}
		}
	}
	JOINT RHipJoint
	{
		OFFSET 0.000000 0.000000 0.000000
		CHANNELS 3 Zrotation Yrotation Xrotation
		JOINT RightUpLeg
		{
			OFFSET -1.305520 -1.794630 0.839290
			CHANNELS 3 Zrotation Yrotation Xrotation
			JOINT RightLeg
			{
				OFFSET -2.542530 -6.985550 0.000000
				CHANNELS 3 Zrotation Yrotation Xrotation
				JOINT RightFoot
				{
					OFFSET -2.568260 -7.056230 0.000000
					CHANNELS 3 Zrotation Yrotation Xrotation
					JOINT RightToeBase
					{
						OFFSET -0.164730 -0.452590 2.363150
						CHANNELS 3 Zrotation Yrotation Xrotation
						End Site
						{
							OFFSET 0.000000 0.000000 0.000000
						}
					}
				}
			}
		}
	}
	JOINT LowerBack
	{
		OFFSET 0.000000 0.000000 0.000000
		CHANNELS 3 Zrotation Yrotation Xrotation
		JOINT Spine
		{
			OFFSET 0.028270 2.035590 -0.193380
			CHANNELS 3 Zrotation Yrotation Xrotation
			JOINT Spine1
			{
				OFFSET 0.056720 2.048850 -0.042750
				CHANNELS 3 Zrotation Yrotation Xrotation
				JOINT Neck
				{
					OFFSET 0.000000 0.000000 0.000000
					CHANNELS 3 Zrotation Yrotation Xrotation
					JOINT Neck1
					{
						OFFSET -0.054170 1.746240 0.172020
						CHANNELS 3 Zrotation Yrotation Xrotation
						JOINT Head
						{
							OFFSET 0.104070 1.761360 -0.123970
							CHANNELS 3 Zrotation Yrotation Xrotation
							End Site
							{
								OFFSET 0.000000 0.000000 0.000000
							}
						}
					}
				}
				JOINT LeftShoulder
				{
					OFFSET 0.000000 0.000000 0.000000
					CHANNELS 3 Zrotation Yrotation Xrotation
					JOINT LeftArm
					{
						OFFSET 3.362410 1.200890 -0.311210
						CHANNELS 3 Zrotation Yrotation Xrotation
						JOINT LeftForeArm
						{
							OFFSET 4.983000 -0.000000 -0.000000
							CHANNELS 3 Zrotation Yrotation Xrotation
							JOINT LeftHand
							{
								OFFSET 3.483560 -0.000000 -0.000000
								CHANNELS 3 Zrotation Yrotation Xrotation
								JOINT LeftFingerBase
								{
									OFFSET 0.000000 0.000000 0.000000
									CHANNELS 3 Zrotation Yrotation Xrotation
									JOINT LeftHandIndex1
									{
										OFFSET 0.715260 -0.000000 -0.000000
										CHANNELS 3 Zrotation Yrotation Xrotation
										End Site
										{
											OFFSET 0.000000 0.000000 0.000000
										}
									}
								}
								JOINT LThumb
								{
									OFFSET 0.000000 0.000000 0.000000
									CHANNELS 3 Zrotation Yrotation Xrotation
									End Site
									{
										OFFSET 0.000000 0.000000 0.000000
									}
								}
							}
						}
					}
				}
				JOINT RightShoulder
				{
					OFFSET 0.000000 0.000000 0.000000
					CHANNELS 3 Zrotation Yrotation Xrotation
					JOINT RightArm
					{
						OFFSET -3.136600 1.374050 -0.404650
						CHANNELS 3 Zrotation Yrotation Xrotation
						JOINT RightForeArm
						{
							OFFSET -5.241900 -0.000000 -0.000000
							CHANNELS 3 Zrotation Yrotation Xrotation
							JOINT RightHand
							{
								OFFSET -3.444170 -0.000000 -0.000000
								CHANNELS 3 Zrotation Yrotation Xrotation
								JOINT RightFingerBase
								{
									OFFSET 0.000000 0.000000 0.000000
									CHANNELS 3 Zrotation Yrotation Xrotation
									JOINT RightHandIndex1
									{
										OFFSET -0.622530 -0.000000 -0.000000
										CHANNELS 3 Zrotation Yrotation Xrotation
										End Site
										{
											OFFSET 0.000000 0.000000 0.000000
										}
									}
								}
								JOINT RThumb
								{
									OFFSET 0.000000 0.000000 0.000000
									CHANNELS 3 Zrotation Yrotation Xrotation
									End Site
									{
										OFFSET 0.000000 0.000000 0.000000
									}
								}
							}
						}
					}
				}
			}
		}
	}
}
MOTION
Frames: 11
Frame Time: 0.008333
5.622262 16.896731 0.881725 21.511014 -86.717615 -7.559998 -9.583359 1.202218 3.447021 -11.020620 -5.166153 -44.899746 -0.392995 2.601430 51.554206 2.955157 14.854484 -11.873958 -0.747400 -0.000000 -27.118000 9.316283 -1.241483 2.491049 9.775432 2.390610 -15.354826 2.058555 0.057136 21.961557 -2.257383 -5.732724 -19.081282 1.424599 -0.000000 -52.199800 -3.841479 -1.778285 -6.724096 -1.669486 -1.824519 -3.923907 -7.637394 -1.989147 1.794038 11.245816 -6.930920 -11.061862 -4.302277 -0.310659 -0.958796 0.000000 0.000000 0.000000 -0.794388 15.909496 2.918312 -70.062543 6.193980 -33.103457 -2.090927 -12.822856 -0.040102 34.697331 17.689002 5.484938 0.178104 0.172218 0.000000 0.000000 0.000000 0.000000 0.000000 0.000000 0.000000 18.944945 -1.492347 -0.175501 69.661232 5.073188 -20.259980 1.026431 45.209319 -0.044012 -30.922242 16.762058 -4.745518 0.173243 -0.194543 -0.000000 0.000000 0.000000 0.000000 0.000000 0.000000 0.000000 
5.513305 16.921229 0.856969 22.139342 -86.647753 -8.015731 -9.436715 1.218141 3.534166 -11.433938 -5.112923 -45.205286 -0.556803 2.455545 49.183716 2.963714 14.684537 -11.518711 -0.609700 -0.000000 -28.145100 9.318124 -1.303034 2.462166 9.803895 1.993590 -14.284948 2.126806 0.240591 20.023927 -2.147858 -5.397441 -18.426634 1.286600 0.000000 -52.439099 -3.930515 -1.706016 -6.780004 -1.692998 -1.746533 -3.939850 -7.625645 -1.911382 1.787786 11.189339 -6.899425 -11.134118 -4.268477 -0.307287 -0.978809 0.000000 0.000000 0.000000 -0.859380 16.306354 2.915794 -69.417371 6.779325 -33.168229 -2.106674 -13.436916 -0.038332 34.797505 16.998008 5.284332 0.178730 0.164471 0.000000 0.000000 0.000000 0.000000 0.000000 0.000000 0.000000 18.719687 -1.339343 -0.206800 69.207373 5.279352 -20.374645 0.994370 46.541582 -0.046576 -30.804573 16.886786 -4.765264 0.177549 -0.204072 -0.000000 0.000000 0.000000 0.000000 0.000000 0.000000 0.000000 
5.405433 16.940124 0.833048 22.773176 -86.585672 -8.499468 -9.290530 1.233062 3.611505 -11.863114 -5.049971 -45.448587 -0.724458 2.298867 46.716783 2.984455 14.589271 -11.156698 -0.470500 -0.000001 -28.876499 9.322218 -1.359192 2.419096 9.826167 1.599386 -13.201560 2.190852 0.417758 18.147383 -2.042246 -5.073911 -17.821604 1.164000 -0.000000 -52.606600 -4.012104 -1.629278 -6.803881 -1.715135 -1.663063 -3.952723 -7.609941 -1.827839 1.770174 11.112345 -6.857442 -11.196519 -4.235543 -0.303983 -0.996603 0.000000 0.000000 0.000000 -0.919624 16.652754 2.920749 -68.759710 7.349431 -33.281359 -2.117222 -14.057553 -0.036815 34.962042 16.384971 5.117124 0.180328 0.157989 0.000000 0.000000 0.000000 0.000000 0.000000 0.000000 0.000000 18.473653 -1.175807 -0.236032 68.754270 5.521133 -20.472182 0.962789 47.859694 -0.049392 -30.586662 17.000309 -4.765609 0.181758 -0.214736 -0.000000 0.000000 0.000000 0.000000 0.000000 0.000000 0.000000 
5.298185 16.953127 0.810293 23.315627 -86.532954 -8.904931 -9.150399 1.244560 3.683315 -12.293926 -4.976510 -45.648640 -0.896647 2.131535 44.181094 3.009956 14.522871 -10.812967 -0.334900 -0.000000 -29.323800 9.322572 -1.412158 2.367757 9.852932 1.224149 -12.122110 2.251308 0.587831 16.349396 -1.943872 -4.768241 -17.283734 1.058800 0.000001 -52.676300 -4.079671 -1.547731 -6.807606 -1.734292 -1.574811 -3.963668 -7.589978 -1.739223 1.745928 11.014045 -6.803079 -11.251875 -4.203226 -0.300720 -1.012839 0.000000 0.000000 0.000000 -0.972297 16.971060 2.932620 -68.096150 7.883168 -33.443948 -2.122535 -14.663942 -0.035593 35.187247 15.862809 4.986115 0.182898 0.152888 0.000000 0.000000 0.000000 0.000000 0.000000 0.000000 0.000000 18.205015 -0.999053 -0.266158 68.296486 5.786639 -20.541900 0.931294 49.171002 -0.052454 -30.285205 17.091915 -4.746052 0.185878 -0.226444 -0.000000 0.000000 0.000000 0.000000 0.000000 0.000000 0.000000 
5.191032 16.960195 0.788751 23.722694 -86.489067 -9.180937 -9.019622 1.252450 3.753561 -12.719004 -4.891723 -45.819021 -1.074625 1.953612 41.597766 3.031265 14.436340 -10.496800 -0.205400 -0.000000 -29.547000 9.316741 -1.463269 2.311294 9.889424 0.868189 -11.061814 2.309283 0.750313 14.644167 -1.852840 -4.473912 -16.824173 0.970600 0.000000 -52.653800 -4.130409 -1.462109 -6.800297 -1.749683 -1.483154 -3.973705 -7.566009 -1.646965 1.717865 10.895570 -6.742905 -11.301292 -4.170720 -0.297445 -1.027614 0.000000 0.000000 0.000000 -1.019743 17.264990 2.949852 -67.430798 8.383199 -33.646971 -2.124020 -15.256477 -0.034675 35.454751 15.445045 4.892404 0.186175 0.149171 0.000000 0.000000 0.000000 0.000000 0.000000 0.000000 0.000000 17.913009 -0.817715 -0.298155 67.834451 6.078005 -20.579938 0.900108 50.466931 -0.055693 -29.919667 17.165080 -4.710694 0.189857 -0.239023 -0.000000 0.000000 0.000000 0.000000 0.000000 0.000000 0.000000 
5.083387 16.961371 0.768630 23.920859 -86.452977 -9.247792 -8.902609 1.256317 3.826188 -13.130307 -4.791647 -45.976031 -1.259247 1.765488 38.986385 3.038276 14.280430 -10.201845 -0.082100 0.000000 -29.642600 9.301266 -1.514802 2.252936 9.943538 0.529047 -10.032257 2.366659 0.905406 13.037346 -1.768045 -4.181890 -16.444869 0.897400 -0.000000 -52.551200 -4.160507 -1.373062 -6.791553 -1.760488 -1.389524 -3.983859 -7.539200 -1.552540 1.689222 10.760349 -6.678065 -11.345385 -4.138109 -0.294182 -1.040938 0.000000 0.000000 0.000000 -1.063220 17.547118 2.970230 -66.762998 8.840492 -33.879764 -2.122967 -15.824934 -0.034043 35.743792 15.126584 4.831691 0.189907 0.146704 0.000000 0.000000 0.000000 0.000000 0.000000 0.000000 0.000000 17.601993 -0.634332 -0.333815 67.364045 6.390059 -20.582594 0.868799 51.749097 -0.059072 -29.516381 17.217539 -4.663137 0.193668 -0.252244 0.000000 0.000000 0.000000 0.000000 0.000000 0.000000 0.000000 
4.974829 16.956897 0.750076 23.818797 -86.423995 -9.008897 -8.804327 1.255523 3.904690 -13.519767 -4.670592 -46.138793 -1.450654 1.568145 36.366092 3.021170 14.013484 -9.907201 0.037800 0.000000 -29.732500 9.272073 -1.569323 2.196712 10.025215 0.206642 -9.042270 2.425490 1.054087 11.524853 -1.687955 -3.885251 -16.137316 0.836300 0.000000 -52.394600 -4.162222 -1.281842 -6.791511 -1.764839 -1.296300 -3.995909 -7.510220 -1.458509 1.660057 10.609397 -6.624584 -11.383203 -4.103719 -0.290844 -1.052125 0.000000 0.000000 0.000000 -1.118602 17.800620 2.990733 -66.090420 9.288945 -34.114960 -2.122584 -16.397583 -0.033641 36.020726 14.924028 4.805377 0.193559 0.145358 0.000000 0.000000 0.000000 0.000000 0.000000 0.000000 0.000000 17.268629 -0.469206 -0.371862 66.894771 6.744432 -20.556682 0.838595 52.991329 -0.062479 -29.090128 17.271284 -4.611880 0.197240 -0.265940 0.000000 0.000000 0.000000 0.000000 0.000000 0.000000 0.000000 
4.865191 16.947153 0.732751 23.540628 -86.396172 -8.604771 -8.720332 1.254693 3.985673 -13.904131 -4.524342 -46.279413 -1.651461 1.361429 33.734527 2.972017 13.611625 -9.587993 0.156300 0.000000 -29.916100 9.239759 -1.625108 2.129642 10.116061 -0.162945 -8.077514 2.488071 1.195278 10.104054 -1.600997 -3.530933 -15.885125 0.779500 0.000000 -52.262200 -4.153219 -1.190670 -6.784436 -1.767206 -1.203826 -4.005634 -7.483099 -1.364771 1.635971 10.459114 -6.554971 -11.416303 -4.072223 -0.287739 -1.062250 0.000000 0.000000 0.000000 -1.157566 18.082511 3.010692 -65.412064 9.643351 -34.385266 -2.120376 -16.892927 -0.033496 36.280930 14.760583 4.788361 0.197230 0.144756 0.000000 0.000000 0.000000 0.000000 0.000000 0.000000 0.000000 16.946544 -0.292267 -0.417958 66.399323 7.092936 -20.486793 0.805392 54.246852 -0.066065 -28.694107 17.281837 -4.553824 0.200672 -0.279683 0.000000 0.000000 0.000000 0.000000 0.000000 0.000000 0.000000 
4.753910 16.932491 0.717123 22.880127 -86.371514 -7.813964 -8.660019 1.249654 4.073468 -14.264827 -4.345402 -46.437361 -1.858909 1.148036 31.122305 2.884521 13.055107 -9.214209 0.277000 0.000000 -30.304000 9.193542 -1.687427 2.063414 10.239503 -0.549550 -7.147018 2.556196 1.331784 8.752858 -1.509711 -3.137050 -15.665047 0.725200 -0.000000 -52.164500 -4.112439 -1.099953 -6.789260 -1.762554 -1.115064 -4.017285 -7.457175 -1.274763 1.613373 10.304592 -6.497977 -11.441762 -4.039955 -0.284675 -1.069704 0.000000 0.000000 0.000000 -1.214435 18.344595 3.026895 -64.725342 9.986393 -34.645848 -2.121182 -17.384966 -0.033495 36.484689 14.681486 4.790646 0.200209 0.144817 0.000000 0.000000 0.000000 0.000000 0.000000 0.000000 0.000000 16.618817 -0.138182 -0.467330 65.901714 7.482221 -20.393931 0.772536 55.463138 -0.069646 -28.319397 17.295432 -4.499969 0.203890 -0.293474 0.000000 0.000000 0.000000 0.000000 0.000000 0.000000 0.000000 
4.640861 16.913368 0.703150 21.865300 -86.347496 -6.671686 -8.622213 1.241214 4.165561 -14.607945 -4.131169 -46.604958 -2.072534 0.929470 28.540490 2.756502 12.346161 -8.766042 0.399300 0.000000 -30.945600 9.137830 -1.756407 1.993336 10.388824 -0.981023 -6.239773 2.631074 1.463856 7.456877 -1.408244 -2.681031 -15.453249 0.668300 -0.000000 -52.150400 -4.045463 -1.010904 -6.799407 -1.752375 -1.030661 -4.029077 -7.434688 -1.188968 1.594542 10.155353 -6.440865 -11.460203 -4.009287 -0.281817 -1.074938 0.000000 0.000000 0.000000 -1.278021 18.612132 3.038801 -64.031715 10.282193 -34.913499 -2.123910 -17.840064 -0.033624 36.626065 14.644319 4.797730 0.202476 0.145267 0.000000 0.000000 0.000000 0.000000 0.000000 0.000000 0.000000 16.303687 0.007031 -0.522093 65.390013 7.892199 -20.276146 0.738300 56.662853 -0.073310 -27.991516 17.293407 -4.449617 0.206973 -0.307081 0.000000 0.000000 0.000000 0.000000 0.000000 0.000000 0.000000 
4.526099 16.890223 0.690790 20.510508 -86.323641 -5.196417 -8.605804 1.228559 4.259893 -14.934244 -3.883126 -46.781700 -2.290413 0.707694 26.005141 2.589695 11.500400 -8.233986 0.519600 -0.000000 -31.850000 9.075307 -1.832114 1.917946 10.560044 -1.467539 -5.347329 2.712787 1.591888 6.201333 -1.294033 -2.155491 -15.227841 0.605801 0.000000 -52.250600 -3.953093 -0.924234 -6.811609 -1.736862 -0.951216 -4.040419 -7.416433 -1.107973 1.579030 10.015923 -6.383202 -11.471535 -3.980647 -0.279198 -1.077968 0.000000 0.000000 0.000000 -1.348258 18.884656 3.046144 -63.334841 10.532567 -35.193000 -2.128474 -18.260336 -0.033860 36.698429 14.634858 4.804416 0.203907 0.145953 0.000000 0.000000 0.000000 0.000000 0.000000 0.000000 0.000000 16.007654 0.143650 -0.581631 64.865462 8.324836 -20.139088 0.702685 57.843899 -0.077065 -27.716840 17.276171 -4.404067 0.209947 -0.320402 0.000000 0.000000 0.000000 0.000000 0.000000 0.000000 0.000000 
